<svg xmlns="http://www.w3.org/2000/svg" width="1280" height="720" viewBox="0 0 1280 720">
  <defs>
    <linearGradient id="bg" x1="0" y1="0" x2="1" y2="1">
      <stop offset="0%" stop-color="#0a0f1a"/>
      <stop offset="100%" stop-color="#0d1422"/>
    </linearGradient>
    <linearGradient id="acc" x1="0" y1="0" x2="1" y2="0">
      <stop offset="0%" stop-color="#22c55e"/>
      <stop offset="100%" stop-color="#16a34a"/>
    </linearGradient>
  </defs>
  <rect width="1280" height="720" fill="url(#bg)"/>
  <g opacity="0.75">
    <circle cx="220" cy="160" r="100" fill="#17324a"/>
    <circle cx="340" cy="260" r="60" fill="#14263d"/>
  </g>
  <g transform="translate(140,120)">
    <rect x="0" y="0" width="440" height="260" rx="26" fill="#0f172a" stroke="#2f3b55" stroke-opacity="0.5"/>
    <rect x="24" y="24" width="210" height="16" rx="8" fill="url(#acc)"/>
    <rect x="24" y="56" width="360" height="12" rx="6" fill="#23314d"/>
    <rect x="24" y="76" width="300" height="12" rx="6" fill="#23314d"/>
    <g transform="translate(24,108)">
      <rect width="392" height="132" rx="14" fill="#111827"/>
      <g transform="translate(24,24)">
        <circle cx="24" cy="24" r="24" fill="#152236"/>
        <rect x="64" y="10" width="180" height="12" rx="6" fill="#1f2d44"/>
        <rect x="64" y="32" width="240" height="10" rx="5" fill="#1f2d44"/>
      </g>
    </g>
  </g>
  <g transform="translate(760,420)" opacity="0.9">
    <rect x="0" y="0" width="420" height="160" rx="24" fill="#111827"/>
    <rect x="24" y="24" width="300" height="16" rx="8" fill="#1f2937"/>
    <rect x="24" y="52" width="220" height="12" rx="6" fill="#1f2937"/>
    <rect x="24" y="84" width="280" height="10" rx="5" fill="#1f2937"/>
  </g>
  <!-- Leaf symbol -->
  <path d="M1090 180c-70 30-110 80-120 150 60-40 110-40 150-20 10-40 0-90-30-130z" fill="url(#acc)" opacity="0.9"/>
</svg>

