<svg xmlns="http://www.w3.org/2000/svg" width="1280" height="720" viewBox="0 0 1280 720">
  <defs>
    <linearGradient id="bg2" x1="0" y1="0" x2="1" y2="1">
      <stop offset="0%" stop-color="#0a0f1a"/>
      <stop offset="100%" stop-color="#101827"/>
    </linearGradient>
    <linearGradient id="acc2" x1="0" y1="0" x2="1" y2="0">
      <stop offset="0%" stop-color="#34d399"/>
      <stop offset="100%" stop-color="#22c55e"/>
    </linearGradient>
  </defs>
  <rect width="1280" height="720" fill="url(#bg2)"/>
  <rect x="820" y="120" width="360" height="220" rx="24" fill="#0f172a" stroke="#2f3b55" stroke-opacity="0.5"/>
  <rect x="844" y="144" width="210" height="16" rx="8" fill="url(#acc2)"/>
  <rect x="844" y="176" width="280" height="12" rx="6" fill="#23314d"/>
  <rect x="844" y="196" width="240" height="12" rx="6" fill="#23314d"/>
  <rect x="844" y="224" width="312" height="96" rx="14" fill="#111827"/>
  <!-- recycle symbol -->
  <g transform="translate(220,440) scale(2)" fill="url(#acc2)">
    <path d="M50 10l12 20H38z"/>
    <path d="M75 40l20 12-12 20-8-14H60z"/>
    <path d="M25 40h22l-10 18-12-20z"/>
  </g>
  <rect x="420" y="470" width="600" height="170" rx="26" fill="#111827" opacity="0.7"/>
  <rect x="460" y="508" width="360" height="18" rx="9" fill="#1f2937"/>
  <rect x="460" y="536" width="240" height="12" rx="6" fill="#1f2937"/>
</svg>

