<svg xmlns="http://www.w3.org/2000/svg" width="1280" height="720" viewBox="0 0 1280 720">
  <defs>
    <linearGradient id="bg3" x1="0" y1="0" x2="1" y2="1">
      <stop offset="0%" stop-color="#0b1220"/>
      <stop offset="100%" stop-color="#121a2b"/>
    </linearGradient>
    <linearGradient id="acc3" x1="0" y1="0" x2="1" y2="0">
      <stop offset="0%" stop-color="#16a34a"/>
      <stop offset="100%" stop-color="#34d399"/>
    </linearGradient>
  </defs>
  <rect width="1280" height="720" fill="url(#bg3)"/>
  <rect x="140" y="140" width="420" height="180" rx="24" fill="#0f172a" stroke="#2f3b55" stroke-opacity="0.5"/>
  <rect x="160" y="164" width="210" height="14" rx="7" fill="url(#acc3)"/>
  <rect x="160" y="192" width="320" height="10" rx="5" fill="#23314d"/>
  <rect x="160" y="210" width="280" height="10" rx="5" fill="#23314d"/>
  <rect x="160" y="236" width="360" height="70" rx="12" fill="#111827"/>
  <!-- shield/check icon for inspection/compliance -->
  <g transform="translate(860,420)" opacity="0.9">
    <rect x="0" y="0" width="280" height="180" rx="26" fill="#111827"/>
    <path d="M60 50l80-20 80 20v60c0 46-80 70-80 70s-80-24-80-70z" fill="#152236"/>
    <path d="M110 102l22 22 46-46" fill="none" stroke="url(#acc3)" stroke-width="12" stroke-linecap="round" stroke-linejoin="round"/>
  </g>
</svg>

