<svg xmlns="http://www.w3.org/2000/svg" width="1280" height="720" viewBox="0 0 1280 720">
  <defs>
    <linearGradient id="g" x1="0" y1="0" x2="1" y2="1">
      <stop offset="0%" stop-color="#0a0f1a"/>
      <stop offset="100%" stop-color="#162238"/>
    </linearGradient>
    <linearGradient id="a" x1="0" y1="0" x2="1" y2="0">
      <stop offset="0%" stop-color="#22c55e"/>
      <stop offset="100%" stop-color="#16a34a"/>
    </linearGradient>
  </defs>
  <rect width="1280" height="720" fill="url(#g)"/>
  <circle cx="1040" cy="160" r="120" fill="#20304d" opacity="0.6"/>
  <rect x="80" y="460" width="560" height="160" rx="26" fill="#111827" opacity="0.6"/>
  <rect x="120" y="500" width="320" height="24" rx="12" fill="#1f2937"/>
  <rect x="120" y="540" width="220" height="18" rx="9" fill="#1f2937"/>
  <rect x="460" y="508" width="120" height="10" rx="5" fill="#1f2937"/>
  <rect x="100" y="100" width="500" height="280" rx="26" fill="#0f172a" stroke="#2f3b55" stroke-opacity="0.5"/>
  <rect x="120" y="124" width="220" height="16" rx="8" fill="url(#a)"/>
  <rect x="120" y="160" width="360" height="12" rx="6" fill="#23314d"/>
  <rect x="120" y="180" width="300" height="12" rx="6" fill="#23314d"/>
  <rect x="120" y="206" width="360" height="180" rx="16" fill="#111827"/>
</svg>

