<svg xmlns="http://www.w3.org/2000/svg" width="1200" height="740" viewBox="0 0 1200 740">
  <defs>
    <linearGradient id="bg" x1="0" y1="0" x2="1" y2="1"><stop offset="0%" stop-color="#0a1015"/><stop offset="100%" stop-color="#0b1420"/></linearGradient>
    <linearGradient id="acc" x1="0" y1="0" x2="1" y2="0"><stop offset="0%" stop-color="#0ea5e9"/><stop offset="100%" stop-color="#10b981"/></linearGradient>
  </defs>
  <rect width="1200" height="740" fill="url(#bg)"/>
  <g opacity="0.6" fill="#1a2a3d">
    <rect x="200" y="160" width="360" height="200" rx="20"/>
    <rect x="240" y="200" width="220" height="14" rx="7"/>
    <rect x="240" y="224" width="280" height="10" rx="5"/>
    <rect x="240" y="242" width="260" height="10" rx="5"/>
  </g>
  <g transform="translate(700,160)">
    <circle cx="160" cy="120" r="110" fill="#0f172a" stroke="#29415e" stroke-opacity=".6"/>
    <circle cx="160" cy="120" r="90" fill="none" stroke="url(#acc)" stroke-width="4" opacity=".9"/>
    <path d="M160 60c-34 0-64 30-64 64 0 20 8 32 18 46 10 14 22 30 22 50" stroke="url(#acc)" stroke-width="6" fill="none" stroke-linecap="round"/>
    <path d="M160 88c-22 0-42 20-42 42 0 12 6 22 14 32 8 10 16 20 16 34" stroke="url(#acc)" stroke-width="6" fill="none" stroke-linecap="round"/>
  </g>
  <text x="220" y="420" fill="#a8b4c7" font-family="Inter,ui-sans-serif" font-size="16">CID = huella exacta del contenido</text>
</svg>

