<svg xmlns="http://www.w3.org/2000/svg" width="1200" height="740" viewBox="0 0 1200 740">
  <defs>
    <linearGradient id="g" x1="0" y1="0" x2="1" y2="1">
      <stop offset="0%" stop-color="#0b1420"/>
      <stop offset="100%" stop-color="#0a1015"/>
    </linearGradient>
  </defs>
  <rect width="1200" height="740" fill="url(#g)"/>
  <g opacity="0.75" fill="#183047">
    <path d="M330 160c40-20 90-20 120 10 22 22 30 60 20 90-12 36-46 54-62 88-20 44-6 102-36 136-28 32-76 30-112 14-38-18-66-54-66-96 0-48 34-84 62-120 26-34 48-70 74-102z"/>
    <path d="M610 200c30-16 70-16 94 8 18 18 24 48 16 72-9 28-36 42-48 68-16 34-4 78-28 104-22 24-60 22-88 10-30-14-52-42-52-76 0-38 26-66 48-94 20-26 38-54 58-78z"/>
  </g>
  <g fill="#e63946" opacity="0.9">
    <circle cx="380" cy="260" r="10"/>
    <circle cx="350" cy="320" r="8"/>
    <circle cx="590" cy="290" r="9"/>
    <circle cx="640" cy="340" r="7"/>
  </g>
</svg>

